<?xml version="1.0" encoding="utf-8" ?><svg xmlns="http://www.w3.org/2000/svg" xmlns:xlink="http://www.w3.org/1999/xlink" width="357" height="75" viewBox="0 0 357 75"><path fill="#FE0805" d="M142.878 30.5322C144.791 27.6728 150.484 26.094 153.581 25.3124C153.619 26.5857 151.792 41.8993 151.288 41.9963C149.565 42.3283 138.755 43.6005 137.271 46.0627C136.176 47.8797 134.662 60.3623 134.878 62.6582C133.343 64.7224 132.501 71.2363 132.218 73.9342C129.448 74.1588 122.221 73.8136 120.118 74.3839C120.436 71.7981 120.893 69.2016 121.122 66.61C121.398 63.4856 121.431 60.3508 121.884 57.2376C122.089 55.8277 122.933 54.6472 123.118 53.2858C123.404 51.1823 123.083 48.9878 123.375 46.8647C123.596 45.2639 124.355 39.4359 125.464 38.5831C126.818 37.5415 127.809 28.9203 128.091 26.7923C131.86 26.6466 135.605 26.8121 139.413 26.5104C139.616 27.0445 139.51 26.978 139.277 27.6578C138.575 30.7652 138.065 33.9844 137.361 37.0126C138.252 35.9012 142.5 31.1023 142.878 30.5322Z"/><path fill="#FE0805" d="M77.6872 7.5811C81.1451 7.67505 85.7811 7.66246 89.2051 7.4673C88.9083 9.22001 87.6562 17.4293 86.8974 18.4244C84.0914 18.4179 77.8292 18.3041 75.3543 18.7977C75.5048 17.2137 76.7833 8.22694 77.6872 7.5811Z"/><path fill="#000100" fill-opacity="0.96470588" d="M86.3822 38.4532L87.285 38.4468C85.9779 44.0116 85.3601 50.0282 84.2245 55.6545C84.0411 56.5632 83.596 58.3705 83.5322 59.2078L82.4112 59.777C83.0953 54.8495 85.0398 42.8498 86.3822 38.4532Z"/><path fill="#000100" fill-opacity="0.050980393" d="M85.9363 21.6088C86.2786 21.8098 86.1732 21.7227 86.353 22.1409L85.7788 22.5858C86.1189 23.3618 85.9262 23.1336 86.6294 23.6014C86.2088 23.8422 76.3065 23.7983 75.5634 23.5489L75.4363 23.131C77.0013 22.3152 75.8351 21.8727 78.4224 21.5005C79.1507 24.7415 82.621 22.5848 84.5698 22.0394C84.9979 21.9196 85.5623 21.8284 85.9363 21.6088Z"/><path fill="#FCF3F6" fill-opacity="0.98823529" d="M137.361 37.0126C138.065 33.9844 138.575 30.7652 139.277 27.6578C139.197 28.7604 138.924 30.733 139.333 31.6681C140.46 32.318 141.807 31.1662 142.878 30.5322C142.5 31.1023 138.252 35.9012 137.361 37.0126Z"/><path fill="#000100" fill-opacity="0.38431373" d="M78.4224 21.5005C80.8147 21.262 83.5847 21.0523 85.9363 21.6088C85.5623 21.8284 84.9979 21.9196 84.5698 22.0394C82.621 22.5848 79.1507 24.7415 78.4224 21.5005Z"/><path fill="#000100" fill-opacity="0.27843139" d="M72.4378 9.96771C73.1006 9.61926 73.3076 9.35833 73.954 9.45506C73.5286 11.6246 73.777 14.2211 72.6235 15.4991C72.9406 14.1476 72.8574 14.4291 72.1696 12.9882C72.1984 11.8134 72.263 11.1304 72.4378 9.96771Z"/><path fill="#000100" fill-opacity="0.10196079" d="M70.3293 29.8196C70.8094 30.1769 69.8476 33.9864 69.6439 34.6919L69.4768 34.4442C69.3463 33.5098 67.9685 31.0085 68.7395 30.1484C69.2751 29.5508 69.3603 30.3114 70.3293 29.8196Z"/><path fill="#000100" fill-opacity="0.10196079" d="M82.4112 59.777L83.5322 59.2078C83.7498 61.4893 82.9281 61.2457 82.195 63.3759C82.1088 63.6262 81.9383 63.78 81.7109 63.9171C81.6673 63.2773 82.0259 60.1454 82.4112 59.777Z"/><path fill="#000100" fill-opacity="0.85882354" d="M325.414 45.847L325.903 46.3465C325.594 48.6421 325.294 50.8171 324.878 53.0952L324.358 52.794C324.498 51.3236 325.178 47.7348 325.414 45.847Z"/><path fill="#000100" fill-opacity="0.46666667" d="M72.713 8.06474C73.1408 7.08269 72.8958 5.73287 74.1619 5.44618C74.6792 5.91583 74.6377 6.68705 74.6886 7.39364C73.9229 7.8616 73.6369 8.07924 72.713 8.06474Z"/><path fill="#000100" fill-opacity="0.74901962" d="M72.713 8.06474C73.6369 8.07924 73.9229 7.8616 74.6886 7.39364C74.5089 8.35566 74.3802 8.60293 73.954 9.45506C73.3076 9.35833 73.1006 9.61926 72.4378 9.96771L72.713 8.06474Z"/><path fill="#000100" fill-opacity="0.67843139" d="M250.116 34.5059C250.25 34.7842 250.621 35.5199 250.686 35.7705C250.361 36.3738 249.68 37.5048 249.584 38.13L249.062 37.3194C249.21 37.104 249.751 35.258 250.116 34.5059Z"/><path fill="#000100" fill-opacity="0.086274512" d="M263.62 55.3646C264.995 55.1542 266.325 54.7879 267.151 55.9937C267.038 56.0245 266.922 56.0473 266.805 56.062C265.515 56.2342 264.613 56.1272 263.62 55.3646Z"/><path fill="#000100" fill-opacity="0.49803922" d="M326.529 39.6759L326.863 40.1319C326.912 41.6225 326.683 42.4306 326.348 43.8559L326.214 43.8116C325.768 42.8897 326.31 40.7584 326.529 39.6759Z"/><path fill="#000100" fill-opacity="0.10588235" d="M65.5403 56.4301L65.7861 56.6623C66.0472 57.4512 65.4954 59.8315 65.3244 60.7843C65.1802 60.7695 65.0979 60.6334 64.9721 60.5056C64.9845 59.236 65.3108 57.7017 65.5403 56.4301Z"/><path fill="#000100" fill-opacity="0.58823532" d="M86.3822 38.4532C86.4565 37.8955 86.543 36.7775 86.8891 36.3873L86.9176 36.3548C86.9752 36.29 87.0137 36.252 87.0806 36.1944L87.3804 36.3065C87.6348 37.0906 87.4534 37.6536 87.285 38.4468L86.3822 38.4532Z"/><path fill="#000100" fill-opacity="0.043137256" d="M275.88 60.6125C276.655 60.4503 279.513 60.484 280.363 60.5394L280.214 60.7768C280.098 60.8535 276.576 60.9477 276.123 60.9303L275.88 60.6125Z"/><path fill="#000100" fill-opacity="0.49019608" d="M72.6235 15.4991C72.2398 15.4938 72.1422 15.422 71.8009 15.2382C71.5929 14.3083 71.8615 14.0067 72.1696 12.9882C72.8574 14.4291 72.9406 14.1476 72.6235 15.4991Z"/><path fill="#000100" fill-opacity="0.33725491" d="M248.568 38.32L248.937 39.2317C248.663 40.1936 248.816 40.1748 248.144 40.8084L247.966 40.4741C248.005 39.5805 248.233 39.1304 248.568 38.32Z"/><path fill="#000100" fill-opacity="0.14117648" d="M250.116 34.5059C250.496 34.0067 250.715 33.4279 251.125 33.2748C251.34 33.6314 250.95 34.7891 250.822 35.3123C250.783 35.4669 250.738 35.6198 250.686 35.7705C250.621 35.5199 250.25 34.7842 250.116 34.5059Z"/><path fill="#000100" fill-opacity="0.27058825" d="M66.8511 40.6847L67.1791 41.0317C67.3977 41.9908 67.0857 42.8966 66.8474 43.8519L66.6488 43.7726C66.4388 42.9784 66.7246 41.5556 66.8511 40.6847Z"/><path fill="#000100" fill-opacity="0.18039216" d="M155.388 31.453L155.639 31.7866C155.598 32.5561 154.943 33.7893 154.594 34.5356L154.413 34.3282C154.398 33.4922 155.031 32.2623 155.388 31.453Z"/><path fill="#000100" fill-opacity="0.23529412" d="M62.8896 63.35L63.2947 63.808C63.4532 64.6984 63.3104 64.6578 62.9537 65.586L62.7359 65.3936C62.4836 64.8483 62.7598 63.9704 62.8896 63.35Z"/><path fill="#000100" fill-opacity="0.21176471" d="M100.774 58.9055C101.581 59.4854 101.29 60.4647 101.158 61.3103C100.32 60.3641 100.56 60.0087 100.774 58.9055Z"/><path fill="#000100" fill-opacity="0.64705884" d="M324.878 53.0952C324.805 53.7963 324.797 54.3209 324.409 54.9235C324.104 54.3177 324.28 53.4857 324.358 52.794L324.878 53.0952Z"/><path fill="#000100" fill-opacity="0.27058825" d="M65.038 52.651C65.4132 53.4197 65.2844 53.859 65.0337 54.625L64.8053 54.4102C64.59 53.4847 64.6973 53.6289 65.038 52.651Z"/><path fill="#000100" fill-opacity="0.80392158" d="M249.062 37.3194L249.584 38.13L248.937 39.2317L248.568 38.32L249.062 37.3194Z"/><path fill="#000100" fill-opacity="0.30980393" d="M101.205 61.2779C101.87 61.6857 102.178 61.8342 102.533 62.5477L101.857 62.6454C101.226 62.2109 101.391 62.1954 101.205 61.2779Z"/><path fill="#000100" fill-opacity="0.30588236" d="M118.339 67.918C118.56 68.6573 118.557 68.9013 118.176 69.4886L117.913 69.3546C117.726 68.7207 117.952 68.6288 118.339 67.918Z"/><path fill="#000100" fill-opacity="0.039215688" d="M323.449 59.3495C323.803 60.0032 323.872 60.1427 323.783 60.8767L323.38 61.1602C323.343 60.7714 323.424 59.7869 323.449 59.3495Z"/><path fill="#000100" fill-opacity="0.10588235" d="M64.5226 61.9226C65.1017 62.4578 64.7841 63.1298 64.6568 63.8435L64.4766 63.6971C64.1551 62.8731 64.3094 62.8934 64.5226 61.9226Z"/><path fill="#000100" fill-opacity="0.72156864" d="M325.414 45.847L325.731 45.0175L325.933 44.9816C325.973 45.508 326.02 45.8254 325.903 46.3465L325.414 45.847Z"/><path fill="#000100" fill-opacity="0.05882353" d="M302.645 42.04L302.965 41.826L303.13 41.9625L302.543 42.1576L301.944 42.3874L302.645 42.04Z"/><path fill="#FE0805" d="M12.6004 0L31.2805 0C32.0762 7.98801 32.3094 17.0667 32.8224 25.1228C33.1162 29.7375 33.7997 33.8074 33.5948 38.4557C33.5319 41.5528 33.5365 44.6509 33.6085 47.7479C34.2539 46.373 35.7443 43.1487 36.086 41.6793C36.1409 41.1694 36.6734 39.9799 36.8829 39.4241C40.2385 30.5251 43.5234 21.7187 47.5573 13.0951C48.6084 10.8481 48.596 6.97664 49.8077 4.79163C51.093 2.47376 51.9291 2.81639 52.8891 0L71.5666 0C67.3209 24.2565 62.3741 49.6613 59.0045 73.9454C57.9808 74.1078 55.5069 74.3826 54.8037 75L47.2152 75L46.6889 74.2475C46.3335 71.2946 50.8494 50.2891 51.6394 45.9335C52.0578 43.6268 52.9274 38.3525 53.3592 35.9424C53.3389 35.017 52.1193 32.7685 53.2301 30.3067C53.2178 29.4499 53.3592 29.2763 52.9133 28.6484C51.9689 29.0182 51.1583 30.7596 50.4243 31.6947C48.5816 35.689 47.2091 40.5492 45.5331 44.7166C41.6474 54.3782 37.7484 64.1484 34.022 73.8722C32.9489 74.1123 30.866 74.49 29.9904 75L24.8254 75C23.8868 73.5454 23.9263 59.2859 23.7824 56.426C23.3408 47.6502 23.2436 38.0941 22.7109 29.2647C22.554 28.1198 22.5047 25.6109 21.1714 25.4428C20.4025 25.9586 20.0817 27.1044 19.7283 27.9981L14.4616 60.1666C13.7393 64.6855 12.6885 69.531 12.2724 74.0248C10.0718 74.0833 1.47513 74.0043 0 74.1884L0 68.7287C1.64233 66.5841 4.10582 49.1892 4.75596 45.3709L10.4197 12.8834C11.1449 8.5624 11.4735 4.22873 12.6004 0ZM21.6042 16.0209L22.515 15.7285C22.6491 14.1151 22.6529 13.4106 22.5244 11.7974C22.1583 13.1397 21.6914 14.6465 21.6042 16.0209Z"/><path fill="#FFA69E" fill-opacity="0.98823529" d="M22.5244 11.7974C22.6529 13.4106 22.6491 14.1151 22.515 15.7285L21.6042 16.0209C21.6914 14.6465 22.1583 13.1397 22.5244 11.7974Z"/><path fill="#FCF3F6" d="M54.5633 20.4184L55.3555 19.717L55.8316 19.8579C56.1729 20.5819 56.0655 21.3407 56.024 22.1377C55.593 24.5673 55.1794 27.0366 54.6469 29.4429L54.1815 28.9162C53.9733 29.2357 53.4591 30.1046 53.2301 30.3067C53.2178 29.4499 53.3592 29.2763 52.9133 28.6484C51.9689 29.0182 51.1583 30.7596 50.4243 31.6947C50.77 29.7811 53.7076 22.5938 54.5633 20.4184Z"/><path fill="#FCF3F6" d="M21.6042 16.0209L22.515 15.7285C22.5484 17.8171 22.9453 28.0963 22.7109 29.2647C22.554 28.1198 22.5047 25.6109 21.1714 25.4428C20.4025 25.9586 20.0817 27.1044 19.7283 27.9981C19.7851 25.6307 21.1561 18.5057 21.6042 16.0209Z"/><path fill="#FEDCE1" d="M54.5633 20.4184C55.4401 17.9309 56.4666 14.9255 57.6721 12.5732C57.2743 15.3793 56.7212 19.4711 56.024 22.1377C56.0655 21.3407 56.1729 20.5819 55.8316 19.8579L55.3555 19.717L54.5633 20.4184Z"/><path fill="#FEFDFE" d="M53.2301 30.3067C53.4591 30.1046 53.9733 29.2357 54.1815 28.9162L54.6469 29.4429C54.4168 31.0759 53.9085 34.4023 53.3592 35.9424C53.3389 35.017 52.1193 32.7685 53.2301 30.3067Z"/><path fill="#FE0805" d="M218.41 26.7443C220.655 26.7072 225.546 26.8572 227.387 26.4763C227.636 31.4515 227.873 36.2066 228.63 41.1283C228.94 43.1413 228.692 45.7121 228.551 47.7476C228.514 50.0845 228.774 52.7869 228.948 55.1483C229.58 53.5174 230.295 51.7891 230.74 50.106C232.019 45.2717 234.484 42.4604 234.719 37.149C234.838 34.4752 238.852 28.8119 240.567 26.7385C242.951 26.7012 249.195 26.5207 251.34 26.7696C251.697 28.5731 247.421 35.3773 246.462 37.564L237.222 58.4444C234.891 63.7508 233.122 68.2689 230.393 73.4522C229.343 74.1731 227.605 74.7536 227.289 75L221.691 75C220.684 73.3912 220.468 56.1707 220.161 52.5456C219.87 50.8096 220.145 48.4674 219.743 46.9115L219.37 46.7292C218.339 47.1326 218.289 47.4239 217.662 48.4781C214.677 57.1056 210.88 65.1911 207.646 73.7562C207.027 74.0507 205.84 74.5451 205.398 75L198.411 75C197.812 73.4127 197.357 62.6928 197.125 60.1837C196.092 49.0188 195.138 37.8345 194.341 26.6503C196.221 26.7711 203.415 26.8861 205.161 26.5717C205.373 32.1754 206.343 40.4441 206.305 45.6335C206.47 47.0398 206.489 48.9536 207.462 49.8887C208.376 49.7895 208.567 49.2622 209.049 48.4878C209.046 48.5192 211.392 42.4262 211.676 41.5351C212.739 38.2005 213.411 34.6457 214.788 31.4213C215.23 30.3858 215.648 31.2486 215.999 30.7367C216.825 29.5361 217.56 28.0175 218.41 26.7443Z"/><path fill="#FEDCE1" d="M206.305 45.6335C206.47 47.0398 206.489 48.9536 207.462 49.8887C208.376 49.7895 208.567 49.2622 209.049 48.4878C208.724 50.0338 207.08 53.5273 206.359 55.1212C206.311 53.0992 206.04 47.3698 206.305 45.6335Z"/><path fill="#FEDCE1" d="M217.662 48.4781C217.653 47.6629 219.368 43.329 219.782 42.1204C219.946 44.1272 220.615 50.9497 220.161 52.5456C219.87 50.8096 220.145 48.4674 219.743 46.9115L219.37 46.7292C218.339 47.1326 218.289 47.4239 217.662 48.4781Z"/><path fill="#FE0805" d="M160.843 75L160.796 74.9504C159.946 74.0651 158.736 73.6723 157.688 73.0458C152.241 69.7884 151.184 68.2998 151.243 62.0132C151.22 57.3622 152.244 52.9504 152.792 48.3422C153.07 46.0122 152.887 43.0875 153.686 40.8134C154.175 39.4217 155.098 38.3879 155.813 37.1613C160.443 29.2266 165.843 25.7355 175.072 25.8096C184.178 25.8828 189.872 30.7395 189.672 40.197C189.728 45.1044 187.103 52.3096 187.841 56.5681C185.501 62.1145 183.567 68.1211 178.311 71.445C176.756 72.4284 173.639 73.6898 172.769 75L160.843 75ZM168.287 65.0956C170.087 64.5952 171.569 64.0875 172.535 62.3806C174.784 58.4024 177.809 42.0384 176.58 37.8002C176.382 37.1177 175.959 36.596 175.329 36.2647C174.288 35.7166 173.059 35.6909 171.917 35.8203C170.647 36.1193 169.284 37.2653 168.563 38.679C166.481 42.7658 164.512 50.4135 164.492 54.9864C164.491 55.2071 165.01 56.658 164.937 57.105C164.557 59.425 162.649 62.3888 165.134 64.2294C165.758 64.6913 167.457 64.9765 168.287 65.0956Z"/><path fill="#FE0805" d="M311.61 42.9035C311.498 40.519 313.072 35.6298 309.229 34.7747C304.31 33.68 300.198 37.3047 296.209 39.5397C294.691 39.3067 291.861 33.6393 291.392 32.1257C291.667 31.3139 291.922 30.9623 292.763 30.5037C299.973 26.5728 307.773 24.6208 315.894 26.6019C322.794 28.2852 322.08 32.6025 324.71 37.0643C323.019 41.86 322.537 49.5277 321.172 54.8835C320.763 56.67 320.478 58.1372 320.194 59.9481C319.997 61.0748 319.624 62.6007 319.892 63.6703C320.077 63.9158 320.266 64.2466 320.554 64.302C320.935 64.8275 321.309 65.1592 321.266 65.832C321.09 68.5645 320.364 71.5859 319.813 74.2456C319.051 74.2397 315.306 74.0875 314.902 74.1196C311.662 73.4233 309.999 71.5219 308.715 68.5733C305.586 71.5233 300.276 73.7531 299.126 75L291.565 75C290.769 74.3931 289.831 73.8194 288.943 73.2031C283.082 69.1325 285.047 57.798 289.136 52.9875C294.2 47.0287 303.681 43.5369 311.61 42.9035ZM298.852 64.4384C302.995 66.5603 304.898 64.2455 306.817 60.6743C308.54 57.4664 308.092 54.6099 308.311 51.1475L307.922 50.6769C305.42 51.8098 302.995 54.0554 300.69 55.4891C297.554 57.44 295.787 61.544 298.852 64.4384Z"/><path fill="#FE0805" d="M257.884 75C256.919 74.0861 255.263 73.5112 254.093 72.804C251.412 71.1827 249.503 68.9568 248.754 65.8769C247.182 59.4139 250.542 40.7011 253.955 35.0822C256.233 31.3337 260.318 27.0889 264.712 26.0352C268.636 25.0943 274.795 25.3772 278.28 27.534C284.993 31.6884 282.659 37.7433 284.122 43.9029C282.461 46.9636 281.871 49.8281 282.116 53.2817C279.586 53.0493 261.421 52.5024 260.467 53.1695C260.395 53.8321 260.22 54.7212 260.058 55.3587C257.455 65.5716 266.414 66.6009 273.842 63.8015C275.168 63.3015 277.295 62.6254 278.789 62.1373C278.14 64.9707 278.679 69.3738 278.146 72.1088C276.46 72.5435 271.535 73.7136 270.633 75L257.884 75ZM261.626 45.7548L266.688 45.7341L272.909 45.7584C272.851 41.141 275.684 34.1496 268.636 33.9965C266.633 34.6659 266.651 34.9846 265.159 36.4074C262.319 39.1156 262.577 42.3684 261.626 45.7548Z"/><path fill="#000100" fill-opacity="0.29411766" d="M268.057 41.7344L268.363 41.8855L268.554 42.4861C269.51 43.2474 269.6 42.1399 270.505 42.1156C270.749 42.8125 271.035 43.4933 270.383 43.9839L269.291 43.7705C267.568 43.8291 266.853 44.0243 265.322 43.1914C266.411 42.156 266.665 43.4498 268.057 41.7344Z"/><path fill="#FE0805" d="M94.8483 75L94.8008 74.9493C93.9837 74.0858 92.5568 73.5054 91.4607 72.9236C82.4843 68.1255 87.4232 54.7857 88.3521 46.9378C88.7302 43.7431 89.5827 40.9756 90.5592 37.782C93.9465 26.7035 110.654 21.7386 119.247 29.5095C122.616 32.5567 122.136 36.4783 122.118 40.8807C119.043 40.9535 114.443 40.7806 111.598 40.9905C111.412 39.5991 111.272 37.1494 110.064 36.3998C107.781 34.9981 104.764 35.9613 103.305 38.0701C100.847 41.6251 100.887 45.5498 100.242 49.6522C99.9303 51.6389 96.8082 62.7175 99.5585 64.0323C105.23 66.7439 107.296 62.9588 108.644 58.0853C112.078 57.9444 116.981 57.6253 120.271 57.7972C118.107 64.1914 117.542 68.8858 110.604 72.4815C109.489 73.0592 107.246 74.0951 106.479 75L94.8483 75Z"/><path fill="#FE0805" d="M349.108 28.5803C350.417 27.1355 355.159 25.8612 357 25.357L357 36.0163C355.934 35.877 356.262 35.7677 355.509 36.3275C354.478 38.2023 355.583 40.8393 354.357 41.86C351.402 42.3268 348.581 42.6534 345.749 43.6369C344.164 44.5785 342.577 45.8921 342.161 47.7676C341.174 52.2136 339.532 71.238 337.326 73.9929C336.61 74.3558 336.376 74.5123 335.605 74.0327L335.212 74.0713C334.152 74.2996 332.448 74.6135 331.493 75L314.997 75L314.902 74.1196C315.306 74.0875 319.051 74.2397 319.813 74.2456C320.364 71.5859 321.09 68.5645 321.266 65.832C321.309 65.1592 320.935 64.8275 320.554 64.302C320.827 64.1838 321.684 64.0899 322.025 64.0431C323.805 65.3228 324.433 63.3511 326.033 62.0341C326.952 58.4802 327.879 52.1289 328.51 48.3129C329.776 43.2839 330.801 32.5208 332.374 27.0998C332.374 27.0976 332.696 26.7514 332.734 26.7101C335.296 26.555 337.855 26.0897 340.41 25.8232C341.806 25.6776 342.812 25.8497 344.198 25.5056C343.706 26.869 343.178 30.5588 342.833 32.267C344.97 30.6572 346.472 29.2646 349.108 28.5803Z"/><path fill="#FEFDFE" d="M322.025 64.0431C323.805 65.3228 324.433 63.3511 326.033 62.0341C325.701 65.6753 324.668 70.0715 324.152 73.7936C325.977 73.792 333.809 73.681 335.212 74.0713C334.152 74.2996 332.448 74.6135 331.493 75L314.997 75L314.902 74.1196C315.306 74.0875 319.051 74.2397 319.813 74.2456C320.364 71.5859 321.09 68.5645 321.266 65.832C321.309 65.1592 320.935 64.8275 320.554 64.302C320.827 64.1838 321.684 64.0899 322.025 64.0431Z"/><path fill="#FEFDFE" d="M340.918 45.9158C342.505 44.8679 343.912 44.1358 345.749 43.6369C344.164 44.5785 342.577 45.8921 342.161 47.7676C341.174 52.2136 339.532 71.238 337.326 73.9929C336.61 74.3558 336.376 74.5123 335.605 74.0327C336.098 73.056 336.684 68.6468 336.956 67.3403C338.306 60.8483 339.051 52.1128 340.918 45.9158Z"/><path fill="#FCF3F6" d="M332.734 26.7101C335.296 26.555 337.855 26.0897 340.41 25.8232C341.806 25.6776 342.812 25.8497 344.198 25.5056C343.706 26.869 343.178 30.5588 342.833 32.267C344.97 30.6572 346.472 29.2646 349.108 28.5803C348.981 28.7315 348.829 28.8546 348.679 28.982C345.889 31.3536 343.506 34.1608 341.179 36.9735C342.002 33.3467 342.532 30.4638 343.155 26.7836C339.681 26.7953 336.208 26.7708 332.734 26.7101Z"/><path fill="#FE0805" d="M73.8096 26.6431C77.839 26.7294 82.0053 26.8721 86.0244 26.6891C85.8428 28.2928 85.887 30.1181 85.5215 31.6266C84.815 34.5427 84.1904 37.3605 83.6491 40.314C82.2904 47.6817 80.9793 55.058 79.7161 62.4426C79.1064 65.9615 78.106 70.4358 77.8515 73.9446C77.0328 74.1293 74.9031 74.4901 74.3581 75L66.0102 75C65.7685 74.646 65.5977 74.1801 65.6642 73.7563C66.4075 69.0193 67.3715 64.1748 68.1664 59.4565C69.8666 48.7487 71.699 38.0624 73.6632 27.4C73.7104 27.1473 73.7592 26.895 73.8096 26.6431Z"/><path fill="#000100" fill-opacity="0.97254902" d="M20.3684 34.1317L20.6192 34.3408C21.2382 35.6592 20.9691 41.3351 19.8988 42.5306L19.6942 42.3092C19.2705 41.1534 20.1039 35.5763 20.3684 34.1317Z"/><path fill="#000100" fill-opacity="0.098039217" d="M18.7156 46.833L19.1698 47.2099C19.3343 48.1344 19.2353 47.9901 18.8574 48.9374L18.7282 48.8581C18.413 48.1201 18.6086 47.7133 18.7156 46.833Z"/><path fill="#000100" fill-opacity="0.18431373" d="M49.4826 42.806C49.5323 44.033 49.6249 44.3803 48.5278 45.0448L48.0963 44.8241C47.8639 43.7864 48.0361 43.9021 48.5676 42.7731L49.4826 42.806Z"/><path fill="#000100" fill-opacity="0.70980394" d="M49.6207 40.3135L50.0283 40.5417C49.8774 41.1219 49.5472 42.2556 49.4826 42.806L48.5676 42.7731C48.9154 41.7793 49.1426 41.2519 49.6207 40.3135Z"/><path fill="#000100" fill-opacity="0.66666669" d="M49.8802 39.1108L50.3475 38.2244C50.6487 38.5838 50.4632 39.3255 50.4179 39.9131L49.8802 39.1108Z"/><path fill="#000100" fill-opacity="0.88627452" d="M49.8802 39.1108L50.4179 39.9131L50.0283 40.5417L49.6207 40.3135L49.8802 39.1108Z"/><path fill="#FEFDFE" fill-opacity="0.45490196" d="M328.51 48.3129C328.63 46.4812 328.627 46.766 328.134 45.181C326.87 41.1152 330.49 37.5647 330.853 33.2623C331.057 30.8455 330.225 28.4303 331.096 26.6747C332.334 25.3172 342.918 24.6587 344.198 25.5056C342.812 25.8497 341.806 25.6776 340.41 25.8232C337.855 26.0897 335.296 26.555 332.734 26.7101C332.696 26.7514 332.374 27.0976 332.374 27.0998C330.801 32.5208 329.776 43.2839 328.51 48.3129Z"/><path fill="#FEFDFE" fill-opacity="0.78039217" d="M278.789 62.1373L279.165 62.1429C279.163 64.7242 281.248 69.2223 279.509 71.5145C278.947 71.8498 278.781 71.9567 278.146 72.1088C278.679 69.3738 278.14 64.9707 278.789 62.1373Z"/><path fill="#FEFDFE" fill-opacity="0.67843139" d="M321.172 54.8835C321.471 56.3665 322.061 56.2356 322.126 56.8102C322.38 59.0487 321.353 60.8464 321.478 63.2457C321.022 61.5937 321.235 61.3392 320.194 59.9481C320.478 58.1372 320.763 56.67 321.172 54.8835Z"/><path fill="#FEDCE1" fill-opacity="0.98431373" d="M33.5948 38.4557C33.6724 39.6607 33.683 41.1909 34.152 42.2713L34.6321 42.6674C35.5184 42.4846 35.3799 42.4051 36.086 41.6793C35.7443 43.1487 34.2539 46.373 33.6085 47.7479C33.5365 44.6509 33.5319 41.5528 33.5948 38.4557Z"/><path fill="#FEDCE1" fill-opacity="0.97254902" d="M228.551 47.7476C228.69 48.3474 228.999 49.9828 229.387 50.3437L229.418 50.3733C229.65 50.5892 229.707 50.5154 230.092 50.5091L230.74 50.106C230.295 51.7891 229.58 53.5174 228.948 55.1483C228.774 52.7869 228.514 50.0845 228.551 47.7476Z"/><path fill="#FEFDFE" fill-opacity="0.97254902" d="M320.194 59.9481C321.235 61.3392 321.022 61.5937 321.478 63.2457L322.025 64.0431C321.684 64.0899 320.827 64.1838 320.554 64.302C320.266 64.2466 320.077 63.9158 319.892 63.6703C319.624 62.6007 319.997 61.0748 320.194 59.9481Z"/></svg>